<svg id="visual" viewBox="0 0 960 540" width="960" height="540" xmlns="http://www.w3.org/2000/svg" xmlns:xlink="http://www.w3.org/1999/xlink" version="1.1"><rect x="0" y="0" width="960" height="540" fill="#001220"></rect><path d="M0 385L17.8 374.5C35.7 364 71.3 343 106.8 333C142.3 323 177.7 324 213.2 334.5C248.7 345 284.3 365 320 364C355.7 363 391.3 341 426.8 338.5C462.3 336 497.7 353 533.2 352.3C568.7 351.7 604.3 333.3 640 326C675.7 318.7 711.3 322.3 746.8 331.8C782.3 341.3 817.7 356.7 853.2 366.2C888.7 375.7 924.3 379.3 942.2 381.2L960 383L960 541L942.2 541C924.3 541 888.7 541 853.2 541C817.7 541 782.3 541 746.8 541C711.3 541 675.7 541 640 541C604.3 541 568.7 541 533.2 541C497.7 541 462.3 541 426.8 541C391.3 541 355.7 541 320 541C284.3 541 248.7 541 213.2 541C177.7 541 142.3 541 106.8 541C71.3 541 35.7 541 17.8 541L0 541Z; M447,306Q404,362,354.5,391Q305,420,248,425Q191,430,147.5,393Q104,356,55.5,303Q7,250,51.5,194Q96,138,144.5,105.5Q193,73,250,73.5Q307,74,363.5,100.5Q420,127,455,188.5Q490,250,447,306Z" fill="#ff0000"></path><path d="M0 397L17.8 402.2C35.7 407.3 71.3 417.7 106.8 412.5C142.3 407.3 177.7 386.7 213.2 385C248.7 383.3 284.3 400.7 320 406.8C355.7 413 391.3 408 426.8 410.2C462.3 412.3 497.7 421.7 533.2 421.8C568.7 422 604.3 413 640 400.2C675.7 387.3 711.3 370.7 746.8 369.2C782.3 367.7 817.7 381.3 853.2 383.5C888.7 385.7 924.3 376.3 942.2 371.7L960 367L960 541L942.2 541C924.3 541 888.7 541 853.2 541C817.7 541 782.3 541 746.8 541C711.3 541 675.7 541 640 541C604.3 541 568.7 541 533.2 541C497.7 541 462.3 541 426.8 541C391.3 541 355.7 541 320 541C284.3 541 248.7 541 213.2 541C177.7 541 142.3 541 106.8 541C71.3 541 35.7 541 17.8 541L0 541Z" fill="#e91113"></path><path d="M0 403L17.8 411.8C35.7 420.7 71.3 438.3 106.8 438.7C142.3 439 177.7 422 213.2 417.5C248.7 413 284.3 421 320 427.7C355.7 434.3 391.3 439.7 426.8 443.5C462.3 447.3 497.7 449.7 533.2 451.7C568.7 453.7 604.3 455.3 640 450.2C675.7 445 711.3 433 746.8 422.5C782.3 412 817.7 403 853.2 405.5C888.7 408 924.3 422 942.2 429L960 436L960 541L942.2 541C924.3 541 888.7 541 853.2 541C817.7 541 782.3 541 746.8 541C711.3 541 675.7 541 640 541C604.3 541 568.7 541 533.2 541C497.7 541 462.3 541 426.8 541C391.3 541 355.7 541 320 541C284.3 541 248.7 541 213.2 541C177.7 541 142.3 541 106.8 541C71.3 541 35.7 541 17.8 541L0 541Z" fill="#d31b1d"></path><path d="M0 458L17.8 458C35.7 458 71.3 458 106.8 456C142.3 454 177.7 450 213.2 447.2C248.7 444.3 284.3 442.7 320 447.5C355.7 452.3 391.3 463.7 426.8 468C462.3 472.3 497.7 469.7 533.2 468C568.7 466.3 604.3 465.7 640 462.2C675.7 458.7 711.3 452.3 746.8 448.2C782.3 444 817.7 442 853.2 445.7C888.7 449.3 924.3 458.7 942.2 463.3L960 468L960 541L942.2 541C924.3 541 888.7 541 853.2 541C817.7 541 782.3 541 746.8 541C711.3 541 675.7 541 640 541C604.3 541 568.7 541 533.2 541C497.7 541 462.3 541 426.8 541C391.3 541 355.7 541 320 541C284.3 541 248.7 541 213.2 541C177.7 541 142.3 541 106.8 541C71.3 541 35.7 541 17.8 541L0 541Z" fill="#bd2223"></path><path d="M0 503L17.8 498.2C35.7 493.3 71.3 483.7 106.8 482C142.3 480.3 177.7 486.7 213.2 488.5C248.7 490.3 284.3 487.7 320 484.5C355.7 481.3 391.3 477.7 426.8 480.5C462.3 483.3 497.7 492.7 533.2 497.5C568.7 502.3 604.3 502.7 640 504.8C675.7 507 711.3 511 746.8 506.2C782.3 501.3 817.7 487.7 853.2 485C888.7 482.3 924.3 490.7 942.2 494.8L960 499L960 541L942.2 541C924.3 541 888.7 541 853.2 541C817.7 541 782.3 541 746.8 541C711.3 541 675.7 541 640 541C604.3 541 568.7 541 533.2 541C497.7 541 462.3 541 426.8 541C391.3 541 355.7 541 320 541C284.3 541 248.7 541 213.2 541C177.7 541 142.3 541 106.8 541C71.3 541 35.7 541 17.8 541L0 541Z" fill="#a62727"></path></svg>